<svg version="1.1" xmlns="http://www.w3.org/2000/svg" xmlns:xlink="http://www.w3.org/1999/xlink" width="607.7890625" height="784"><defs/><g><text fill="#eeeeee" stroke="none" font-family="Arial" font-size="24px" font-style="normal" font-weight="normal" text-decoration="none" x="0" y="0">UNREGISTERED</text><text fill="#eeeeee" stroke="none" font-family="Arial" font-size="24px" font-style="normal" font-weight="normal" text-decoration="none" x="0" y="30">UNREGISTERED</text><text fill="#eeeeee" stroke="none" font-family="Arial" font-size="24px" font-style="normal" font-weight="normal" text-decoration="none" x="0" y="60">UNREGISTERED</text><text fill="#eeeeee" stroke="none" font-family="Arial" font-size="24px" font-style="normal" font-weight="normal" text-decoration="none" x="0" y="90">UNREGISTERED</text><text fill="#eeeeee" stroke="none" font-family="Arial" font-size="24px" font-style="normal" font-weight="normal" text-decoration="none" x="0" y="120">UNREGISTERED</text><text fill="#eeeeee" stroke="none" font-family="Arial" font-size="24px" font-style="normal" font-weight="normal" text-decoration="none" x="0" y="150">UNREGISTERED</text><text fill="#eeeeee" stroke="none" font-family="Arial" font-size="24px" font-style="normal" font-weight="normal" text-decoration="none" x="0" y="180">UNREGISTERED</text><text fill="#eeeeee" stroke="none" font-family="Arial" font-size="24px" font-style="normal" font-weight="normal" text-decoration="none" x="0" y="210">UNREGISTERED</text><text fill="#eeeeee" stroke="none" font-family="Arial" font-size="24px" font-style="normal" font-weight="normal" text-decoration="none" x="0" y="240">UNREGISTERED</text><text fill="#eeeeee" stroke="none" font-family="Arial" font-size="24px" font-style="normal" font-weight="normal" text-decoration="none" x="0" y="270">UNREGISTERED</text><text fill="#eeeeee" stroke="none" font-family="Arial" font-size="24px" font-style="normal" font-weight="normal" text-decoration="none" x="0" y="300">UNREGISTERED</text><text fill="#eeeeee" stroke="none" font-family="Arial" font-size="24px" font-style="normal" font-weight="normal" text-decoration="none" x="0" y="330">UNREGISTERED</text><text fill="#eeeeee" stroke="none" font-family="Arial" font-size="24px" font-style="normal" font-weight="normal" text-decoration="none" x="0" y="360">UNREGISTERED</text><text fill="#eeeeee" stroke="none" font-family="Arial" font-size="24px" font-style="normal" font-weight="normal" text-decoration="none" x="0" y="390">UNREGISTERED</text><text fill="#eeeeee" stroke="none" font-family="Arial" font-size="24px" font-style="normal" font-weight="normal" text-decoration="none" x="0" y="420">UNREGISTERED</text><text fill="#eeeeee" stroke="none" font-family="Arial" font-size="24px" font-style="normal" font-weight="normal" text-decoration="none" x="0" y="450">UNREGISTERED</text><text fill="#eeeeee" stroke="none" font-family="Arial" font-size="24px" font-style="normal" font-weight="normal" text-decoration="none" x="0" y="480">UNREGISTERED</text><text fill="#eeeeee" stroke="none" font-family="Arial" font-size="24px" font-style="normal" font-weight="normal" text-decoration="none" x="0" y="510">UNREGISTERED</text><text fill="#eeeeee" stroke="none" font-family="Arial" font-size="24px" font-style="normal" font-weight="normal" text-decoration="none" x="0" y="540">UNREGISTERED</text><text fill="#eeeeee" stroke="none" font-family="Arial" font-size="24px" font-style="normal" font-weight="normal" text-decoration="none" x="0" y="570">UNREGISTERED</text><text fill="#eeeeee" stroke="none" font-family="Arial" font-size="24px" font-style="normal" font-weight="normal" text-decoration="none" x="0" y="600">UNREGISTERED</text><text fill="#eeeeee" stroke="none" font-family="Arial" font-size="24px" font-style="normal" font-weight="normal" text-decoration="none" x="0" y="630">UNREGISTERED</text><text fill="#eeeeee" stroke="none" font-family="Arial" font-size="24px" font-style="normal" font-weight="normal" text-decoration="none" x="0" y="660">UNREGISTERED</text><text fill="#eeeeee" stroke="none" font-family="Arial" font-size="24px" font-style="normal" font-weight="normal" text-decoration="none" x="0" y="690">UNREGISTERED</text><text fill="#eeeeee" stroke="none" font-family="Arial" font-size="24px" font-style="normal" font-weight="normal" text-decoration="none" x="0" y="720">UNREGISTERED</text><text fill="#eeeeee" stroke="none" font-family="Arial" font-size="24px" font-style="normal" font-weight="normal" text-decoration="none" x="0" y="750">UNREGISTERED</text><text fill="#eeeeee" stroke="none" font-family="Arial" font-size="24px" font-style="normal" font-weight="normal" text-decoration="none" x="0" y="780">UNREGISTERED</text><text fill="#eeeeee" stroke="none" font-family="Arial" font-size="24px" font-style="normal" font-weight="normal" text-decoration="none" x="200" y="0">UNREGISTERED</text><text fill="#eeeeee" stroke="none" font-family="Arial" font-size="24px" font-style="normal" font-weight="normal" text-decoration="none" x="200" y="30">UNREGISTERED</text><text fill="#eeeeee" stroke="none" font-family="Arial" font-size="24px" font-style="normal" font-weight="normal" text-decoration="none" x="200" y="60">UNREGISTERED</text><text fill="#eeeeee" stroke="none" font-family="Arial" font-size="24px" font-style="normal" font-weight="normal" text-decoration="none" x="200" y="90">UNREGISTERED</text><text fill="#eeeeee" stroke="none" font-family="Arial" font-size="24px" font-style="normal" font-weight="normal" text-decoration="none" x="200" y="120">UNREGISTERED</text><text fill="#eeeeee" stroke="none" font-family="Arial" font-size="24px" font-style="normal" font-weight="normal" text-decoration="none" x="200" y="150">UNREGISTERED</text><text fill="#eeeeee" stroke="none" font-family="Arial" font-size="24px" font-style="normal" font-weight="normal" text-decoration="none" x="200" y="180">UNREGISTERED</text><text fill="#eeeeee" stroke="none" font-family="Arial" font-size="24px" font-style="normal" font-weight="normal" text-decoration="none" x="200" y="210">UNREGISTERED</text><text fill="#eeeeee" stroke="none" font-family="Arial" font-size="24px" font-style="normal" font-weight="normal" text-decoration="none" x="200" y="240">UNREGISTERED</text><text fill="#eeeeee" stroke="none" font-family="Arial" font-size="24px" font-style="normal" font-weight="normal" text-decoration="none" x="200" y="270">UNREGISTERED</text><text fill="#eeeeee" stroke="none" font-family="Arial" font-size="24px" font-style="normal" font-weight="normal" text-decoration="none" x="200" y="300">UNREGISTERED</text><text fill="#eeeeee" stroke="none" font-family="Arial" font-size="24px" font-style="normal" font-weight="normal" text-decoration="none" x="200" y="330">UNREGISTERED</text><text fill="#eeeeee" stroke="none" font-family="Arial" font-size="24px" font-style="normal" font-weight="normal" text-decoration="none" x="200" y="360">UNREGISTERED</text><text fill="#eeeeee" stroke="none" font-family="Arial" font-size="24px" font-style="normal" font-weight="normal" text-decoration="none" x="200" y="390">UNREGISTERED</text><text fill="#eeeeee" stroke="none" font-family="Arial" font-size="24px" font-style="normal" font-weight="normal" text-decoration="none" x="200" y="420">UNREGISTERED</text><text fill="#eeeeee" stroke="none" font-family="Arial" font-size="24px" font-style="normal" font-weight="normal" text-decoration="none" x="200" y="450">UNREGISTERED</text><text fill="#eeeeee" stroke="none" font-family="Arial" font-size="24px" font-style="normal" font-weight="normal" text-decoration="none" x="200" y="480">UNREGISTERED</text><text fill="#eeeeee" stroke="none" font-family="Arial" font-size="24px" font-style="normal" font-weight="normal" text-decoration="none" x="200" y="510">UNREGISTERED</text><text fill="#eeeeee" stroke="none" font-family="Arial" font-size="24px" font-style="normal" font-weight="normal" text-decoration="none" x="200" y="540">UNREGISTERED</text><text fill="#eeeeee" stroke="none" font-family="Arial" font-size="24px" font-style="normal" font-weight="normal" text-decoration="none" x="200" y="570">UNREGISTERED</text><text fill="#eeeeee" stroke="none" font-family="Arial" font-size="24px" font-style="normal" font-weight="normal" text-decoration="none" x="200" y="600">UNREGISTERED</text><text fill="#eeeeee" stroke="none" font-family="Arial" font-size="24px" font-style="normal" font-weight="normal" text-decoration="none" x="200" y="630">UNREGISTERED</text><text fill="#eeeeee" stroke="none" font-family="Arial" font-size="24px" font-style="normal" font-weight="normal" text-decoration="none" x="200" y="660">UNREGISTERED</text><text fill="#eeeeee" stroke="none" font-family="Arial" font-size="24px" font-style="normal" font-weight="normal" text-decoration="none" x="200" y="690">UNREGISTERED</text><text fill="#eeeeee" stroke="none" font-family="Arial" font-size="24px" font-style="normal" font-weight="normal" text-decoration="none" x="200" y="720">UNREGISTERED</text><text fill="#eeeeee" stroke="none" font-family="Arial" font-size="24px" font-style="normal" font-weight="normal" text-decoration="none" x="200" y="750">UNREGISTERED</text><text fill="#eeeeee" stroke="none" font-family="Arial" font-size="24px" font-style="normal" font-weight="normal" text-decoration="none" x="200" y="780">UNREGISTERED</text><text fill="#eeeeee" stroke="none" font-family="Arial" font-size="24px" font-style="normal" font-weight="normal" text-decoration="none" x="400" y="0">UNREGISTERED</text><text fill="#eeeeee" stroke="none" font-family="Arial" font-size="24px" font-style="normal" font-weight="normal" text-decoration="none" x="400" y="30">UNREGISTERED</text><text fill="#eeeeee" stroke="none" font-family="Arial" font-size="24px" font-style="normal" font-weight="normal" text-decoration="none" x="400" y="60">UNREGISTERED</text><text fill="#eeeeee" stroke="none" font-family="Arial" font-size="24px" font-style="normal" font-weight="normal" text-decoration="none" x="400" y="90">UNREGISTERED</text><text fill="#eeeeee" stroke="none" font-family="Arial" font-size="24px" font-style="normal" font-weight="normal" text-decoration="none" x="400" y="120">UNREGISTERED</text><text fill="#eeeeee" stroke="none" font-family="Arial" font-size="24px" font-style="normal" font-weight="normal" text-decoration="none" x="400" y="150">UNREGISTERED</text><text fill="#eeeeee" stroke="none" font-family="Arial" font-size="24px" font-style="normal" font-weight="normal" text-decoration="none" x="400" y="180">UNREGISTERED</text><text fill="#eeeeee" stroke="none" font-family="Arial" font-size="24px" font-style="normal" font-weight="normal" text-decoration="none" x="400" y="210">UNREGISTERED</text><text fill="#eeeeee" stroke="none" font-family="Arial" font-size="24px" font-style="normal" font-weight="normal" text-decoration="none" x="400" y="240">UNREGISTERED</text><text fill="#eeeeee" stroke="none" font-family="Arial" font-size="24px" font-style="normal" font-weight="normal" text-decoration="none" x="400" y="270">UNREGISTERED</text><text fill="#eeeeee" stroke="none" font-family="Arial" font-size="24px" font-style="normal" font-weight="normal" text-decoration="none" x="400" y="300">UNREGISTERED</text><text fill="#eeeeee" stroke="none" font-family="Arial" font-size="24px" font-style="normal" font-weight="normal" text-decoration="none" x="400" y="330">UNREGISTERED</text><text fill="#eeeeee" stroke="none" font-family="Arial" font-size="24px" font-style="normal" font-weight="normal" text-decoration="none" x="400" y="360">UNREGISTERED</text><text fill="#eeeeee" stroke="none" font-family="Arial" font-size="24px" font-style="normal" font-weight="normal" text-decoration="none" x="400" y="390">UNREGISTERED</text><text fill="#eeeeee" stroke="none" font-family="Arial" font-size="24px" font-style="normal" font-weight="normal" text-decoration="none" x="400" y="420">UNREGISTERED</text><text fill="#eeeeee" stroke="none" font-family="Arial" font-size="24px" font-style="normal" font-weight="normal" text-decoration="none" x="400" y="450">UNREGISTERED</text><text fill="#eeeeee" stroke="none" font-family="Arial" font-size="24px" font-style="normal" font-weight="normal" text-decoration="none" x="400" y="480">UNREGISTERED</text><text fill="#eeeeee" stroke="none" font-family="Arial" font-size="24px" font-style="normal" font-weight="normal" text-decoration="none" x="400" y="510">UNREGISTERED</text><text fill="#eeeeee" stroke="none" font-family="Arial" font-size="24px" font-style="normal" font-weight="normal" text-decoration="none" x="400" y="540">UNREGISTERED</text><text fill="#eeeeee" stroke="none" font-family="Arial" font-size="24px" font-style="normal" font-weight="normal" text-decoration="none" x="400" y="570">UNREGISTERED</text><text fill="#eeeeee" stroke="none" font-family="Arial" font-size="24px" font-style="normal" font-weight="normal" text-decoration="none" x="400" y="600">UNREGISTERED</text><text fill="#eeeeee" stroke="none" font-family="Arial" font-size="24px" font-style="normal" font-weight="normal" text-decoration="none" x="400" y="630">UNREGISTERED</text><text fill="#eeeeee" stroke="none" font-family="Arial" font-size="24px" font-style="normal" font-weight="normal" text-decoration="none" x="400" y="660">UNREGISTERED</text><text fill="#eeeeee" stroke="none" font-family="Arial" font-size="24px" font-style="normal" font-weight="normal" text-decoration="none" x="400" y="690">UNREGISTERED</text><text fill="#eeeeee" stroke="none" font-family="Arial" font-size="24px" font-style="normal" font-weight="normal" text-decoration="none" x="400" y="720">UNREGISTERED</text><text fill="#eeeeee" stroke="none" font-family="Arial" font-size="24px" font-style="normal" font-weight="normal" text-decoration="none" x="400" y="750">UNREGISTERED</text><text fill="#eeeeee" stroke="none" font-family="Arial" font-size="24px" font-style="normal" font-weight="normal" text-decoration="none" x="400" y="780">UNREGISTERED</text><text fill="#eeeeee" stroke="none" font-family="Arial" font-size="24px" font-style="normal" font-weight="normal" text-decoration="none" x="600" y="0">UNREGISTERED</text><text fill="#eeeeee" stroke="none" font-family="Arial" font-size="24px" font-style="normal" font-weight="normal" text-decoration="none" x="600" y="30">UNREGISTERED</text><text fill="#eeeeee" stroke="none" font-family="Arial" font-size="24px" font-style="normal" font-weight="normal" text-decoration="none" x="600" y="60">UNREGISTERED</text><text fill="#eeeeee" stroke="none" font-family="Arial" font-size="24px" font-style="normal" font-weight="normal" text-decoration="none" x="600" y="90">UNREGISTERED</text><text fill="#eeeeee" stroke="none" font-family="Arial" font-size="24px" font-style="normal" font-weight="normal" text-decoration="none" x="600" y="120">UNREGISTERED</text><text fill="#eeeeee" stroke="none" font-family="Arial" font-size="24px" font-style="normal" font-weight="normal" text-decoration="none" x="600" y="150">UNREGISTERED</text><text fill="#eeeeee" stroke="none" font-family="Arial" font-size="24px" font-style="normal" font-weight="normal" text-decoration="none" x="600" y="180">UNREGISTERED</text><text fill="#eeeeee" stroke="none" font-family="Arial" font-size="24px" font-style="normal" font-weight="normal" text-decoration="none" x="600" y="210">UNREGISTERED</text><text fill="#eeeeee" stroke="none" font-family="Arial" font-size="24px" font-style="normal" font-weight="normal" text-decoration="none" x="600" y="240">UNREGISTERED</text><text fill="#eeeeee" stroke="none" font-family="Arial" font-size="24px" font-style="normal" font-weight="normal" text-decoration="none" x="600" y="270">UNREGISTERED</text><text fill="#eeeeee" stroke="none" font-family="Arial" font-size="24px" font-style="normal" font-weight="normal" text-decoration="none" x="600" y="300">UNREGISTERED</text><text fill="#eeeeee" stroke="none" font-family="Arial" font-size="24px" font-style="normal" font-weight="normal" text-decoration="none" x="600" y="330">UNREGISTERED</text><text fill="#eeeeee" stroke="none" font-family="Arial" font-size="24px" font-style="normal" font-weight="normal" text-decoration="none" x="600" y="360">UNREGISTERED</text><text fill="#eeeeee" stroke="none" font-family="Arial" font-size="24px" font-style="normal" font-weight="normal" text-decoration="none" x="600" y="390">UNREGISTERED</text><text fill="#eeeeee" stroke="none" font-family="Arial" font-size="24px" font-style="normal" font-weight="normal" text-decoration="none" x="600" y="420">UNREGISTERED</text><text fill="#eeeeee" stroke="none" font-family="Arial" font-size="24px" font-style="normal" font-weight="normal" text-decoration="none" x="600" y="450">UNREGISTERED</text><text fill="#eeeeee" stroke="none" font-family="Arial" font-size="24px" font-style="normal" font-weight="normal" text-decoration="none" x="600" y="480">UNREGISTERED</text><text fill="#eeeeee" stroke="none" font-family="Arial" font-size="24px" font-style="normal" font-weight="normal" text-decoration="none" x="600" y="510">UNREGISTERED</text><text fill="#eeeeee" stroke="none" font-family="Arial" font-size="24px" font-style="normal" font-weight="normal" text-decoration="none" x="600" y="540">UNREGISTERED</text><text fill="#eeeeee" stroke="none" font-family="Arial" font-size="24px" font-style="normal" font-weight="normal" text-decoration="none" x="600" y="570">UNREGISTERED</text><text fill="#eeeeee" stroke="none" font-family="Arial" font-size="24px" font-style="normal" font-weight="normal" text-decoration="none" x="600" y="600">UNREGISTERED</text><text fill="#eeeeee" stroke="none" font-family="Arial" font-size="24px" font-style="normal" font-weight="normal" text-decoration="none" x="600" y="630">UNREGISTERED</text><text fill="#eeeeee" stroke="none" font-family="Arial" font-size="24px" font-style="normal" font-weight="normal" text-decoration="none" x="600" y="660">UNREGISTERED</text><text fill="#eeeeee" stroke="none" font-family="Arial" font-size="24px" font-style="normal" font-weight="normal" text-decoration="none" x="600" y="690">UNREGISTERED</text><text fill="#eeeeee" stroke="none" font-family="Arial" font-size="24px" font-style="normal" font-weight="normal" text-decoration="none" x="600" y="720">UNREGISTERED</text><text fill="#eeeeee" stroke="none" font-family="Arial" font-size="24px" font-style="normal" font-weight="normal" text-decoration="none" x="600" y="750">UNREGISTERED</text><text fill="#eeeeee" stroke="none" font-family="Arial" font-size="24px" font-style="normal" font-weight="normal" text-decoration="none" x="600" y="780">UNREGISTERED</text><g transform="translate(-86,-2) scale(1,1)"><path fill="#ffffff" stroke="none" d="M 116.02116672585228 281.68 C 116.02116672585228 276.886167936 119.90700905079774 273 124.700439453125 273 C 129.49386985545226 273 133.37971218039772 276.886167936 133.37971218039772 281.68 C 133.37971218039772 286.473832064 129.49386985545226 290.36 124.700439453125 290.36 C 119.90700905079774 290.36 116.02116672585228 286.473832064 116.02116672585228 281.68 Z"/></g><g transform="translate(-86,-2) scale(1,1)"><path fill="none" stroke="#000000" d="M 116.02116672585228 281.68 C 116.02116672585228 276.886167936 119.90700905079774 273 124.700439453125 273 C 129.49386985545226 273 133.37971218039772 276.886167936 133.37971218039772 281.68 C 133.37971218039772 286.473832064 129.49386985545226 290.36 124.700439453125 290.36 C 119.90700905079774 290.36 116.02116672585228 286.473832064 116.02116672585228 281.68 Z" stroke-miterlimit="10"/></g><g transform="translate(-86,-2) scale(1,1)"><path fill="none" stroke="#000000" d="M 124.700439453125 290.36 L 124.700439453125 307.64" stroke-miterlimit="10"/></g><g transform="translate(-86,-2) scale(1,1)"><path fill="none" stroke="#000000" d="M 115.51062127130683 296.84 L 133.89025763494317 296.84" stroke-miterlimit="10"/></g><g transform="translate(-86,-2) scale(1,1)"><path fill="none" stroke="#000000" d="M 124.700439453125 307.64 L 111.93680308948865 325" stroke-miterlimit="10"/></g><g transform="translate(-86,-2) scale(1,1)"><path fill="none" stroke="#000000" d="M 124.700439453125 307.64 L 137.46407581676135 325" stroke-miterlimit="10"/></g><g transform="translate(-86,-2) scale(1,1)"><g><path fill="none" stroke="none"/><text fill="#000000" stroke="none" font-family="Arial" font-size="13px" font-style="normal" font-weight="bold" text-decoration="none" x="100.5" y="343.7099609375">Usuario</text></g></g><g transform="translate(-86,-2) scale(1,1)"><path fill="#ffffff" stroke="none" d="M 624.4093503196023 441.68 C 624.4093503196023 436.886167936 628.2951926445477 433 633.088623046875 433 C 637.8820534492023 433 641.7678957741477 436.886167936 641.7678957741477 441.68 C 641.7678957741477 446.473832064 637.8820534492023 450.36 633.088623046875 450.36 C 628.2951926445477 450.36 624.4093503196023 446.473832064 624.4093503196023 441.68 Z"/></g><g transform="translate(-86,-2) scale(1,1)"><path fill="none" stroke="#000000" d="M 624.4093503196023 441.68 C 624.4093503196023 436.886167936 628.2951926445477 433 633.088623046875 433 C 637.8820534492023 433 641.7678957741477 436.886167936 641.7678957741477 441.68 C 641.7678957741477 446.473832064 637.8820534492023 450.36 633.088623046875 450.36 C 628.2951926445477 450.36 624.4093503196023 446.473832064 624.4093503196023 441.68 Z" stroke-miterlimit="10"/></g><g transform="translate(-86,-2) scale(1,1)"><path fill="none" stroke="#000000" d="M 633.088623046875 450.36 L 633.088623046875 467.64" stroke-miterlimit="10"/></g><g transform="translate(-86,-2) scale(1,1)"><path fill="none" stroke="#000000" d="M 623.8988048650568 456.84 L 642.2784412286932 456.84" stroke-miterlimit="10"/></g><g transform="translate(-86,-2) scale(1,1)"><path fill="none" stroke="#000000" d="M 633.088623046875 467.64 L 620.3249866832386 485" stroke-miterlimit="10"/></g><g transform="translate(-86,-2) scale(1,1)"><path fill="none" stroke="#000000" d="M 633.088623046875 467.64 L 645.8522594105114 485" stroke-miterlimit="10"/></g><g transform="translate(-86,-2) scale(1,1)"><g><path fill="none" stroke="none"/><text fill="#000000" stroke="none" font-family="Arial" font-size="13px" font-style="normal" font-weight="bold" text-decoration="none" x="622.976806640625" y="503.53857421875">SLI</text></g></g><g transform="translate(-86,-2) scale(1,1)"><path fill="#ffffff" stroke="none" d="M 609.2152585227273 193.68 C 609.2152585227273 188.886167936 613.1011008476727 185 617.89453125 185 C 622.6879616523273 185 626.5738039772727 188.886167936 626.5738039772727 193.68 C 626.5738039772727 198.47383206400002 622.6879616523273 202.36 617.89453125 202.36 C 613.1011008476727 202.36 609.2152585227273 198.47383206400002 609.2152585227273 193.68 Z"/></g><g transform="translate(-86,-2) scale(1,1)"><path fill="none" stroke="#000000" d="M 609.2152585227273 193.68 C 609.2152585227273 188.886167936 613.1011008476727 185 617.89453125 185 C 622.6879616523273 185 626.5738039772727 188.886167936 626.5738039772727 193.68 C 626.5738039772727 198.47383206400002 622.6879616523273 202.36 617.89453125 202.36 C 613.1011008476727 202.36 609.2152585227273 198.47383206400002 609.2152585227273 193.68 Z" stroke-miterlimit="10"/></g><g transform="translate(-86,-2) scale(1,1)"><path fill="none" stroke="#000000" d="M 617.89453125 202.36 L 617.89453125 219.64" stroke-miterlimit="10"/></g><g transform="translate(-86,-2) scale(1,1)"><path fill="none" stroke="#000000" d="M 608.7047130681818 208.84 L 627.0843494318182 208.84" stroke-miterlimit="10"/></g><g transform="translate(-86,-2) scale(1,1)"><path fill="none" stroke="#000000" d="M 617.89453125 219.64 L 605.1308948863636 237" stroke-miterlimit="10"/></g><g transform="translate(-86,-2) scale(1,1)"><path fill="none" stroke="#000000" d="M 617.89453125 219.64 L 630.6581676136364 237" stroke-miterlimit="10"/></g><g transform="translate(-86,-2) scale(1,1)"><g><path fill="none" stroke="none"/><text fill="#000000" stroke="none" font-family="Arial" font-size="13px" font-style="normal" font-weight="bold" text-decoration="none" x="556.5" y="255.7099609375">Controle Financeiro</text></g></g><g transform="translate(-86,-2) scale(1,1)"><path fill="#C0C0C0" stroke="none" d="M 247 74.5 C 247 59.312168 291.5476624 47 346.5 47 C 401.4523376 47 446 59.312168 446 74.5 C 446 89.687832 401.4523376 102 346.5 102 C 291.5476624 102 247 89.687832 247 74.5 Z" opacity="0.2"/></g><g transform="translate(-86,-2) scale(1,1)"><path fill="#ffffff" stroke="none" d="M 240 67.5 C 240 52.312168 284.5476624 40 339.5 40 C 394.4523376 40 439 52.312168 439 67.5 C 439 82.687832 394.4523376 95 339.5 95 C 284.5476624 95 240 82.687832 240 67.5 Z"/></g><g transform="translate(-86,-2) scale(1,1)"><path fill="none" stroke="#000000" d="M 240 67.5 C 240 52.312168 284.5476624 40 339.5 40 C 394.4523376 40 439 52.312168 439 67.5 C 439 82.687832 394.4523376 95 339.5 95 C 284.5476624 95 240 82.687832 240 67.5 Z" stroke-miterlimit="10"/></g><g transform="translate(-86,-2) scale(1,1)"><g><path fill="none" stroke="none"/><text fill="#000000" stroke="none" font-family="Arial" font-size="13px" font-style="normal" font-weight="bold" text-decoration="none" x="277.36279296875" y="72.7099609375">Registrar Chave PIX</text></g></g><g transform="translate(-86,-2) scale(1,1)"><path fill="#C0C0C0" stroke="none" d="M 255 154.5 C 255 139.31216799999999 297.7568016 127 350.5 127 C 403.2431984 127 446 139.31216799999999 446 154.5 C 446 169.68783200000001 403.2431984 182 350.5 182 C 297.7568016 182 255 169.68783200000001 255 154.5 Z" opacity="0.2"/></g><g transform="translate(-86,-2) scale(1,1)"><path fill="#ffffff" stroke="none" d="M 248 147.5 C 248 132.31216799999999 290.7568016 120 343.5 120 C 396.2431984 120 439 132.31216799999999 439 147.5 C 439 162.68783200000001 396.2431984 175 343.5 175 C 290.7568016 175 248 162.68783200000001 248 147.5 Z"/></g><g transform="translate(-86,-2) scale(1,1)"><path fill="none" stroke="#000000" d="M 248 147.5 C 248 132.31216799999999 290.7568016 120 343.5 120 C 396.2431984 120 439 132.31216799999999 439 147.5 C 439 162.68783200000001 396.2431984 175 343.5 175 C 290.7568016 175 248 162.68783200000001 248 147.5 Z" stroke-miterlimit="10"/></g><g transform="translate(-86,-2) scale(1,1)"><g><path fill="none" stroke="none"/><text fill="#000000" stroke="none" font-family="Arial" font-size="13px" font-style="normal" font-weight="bold" text-decoration="none" x="287.510498046875" y="152.7099609375">Iniciar Pagamento</text></g></g><g transform="translate(-86,-2) scale(1,1)"><path fill="#C0C0C0" stroke="none" d="M 247 242.5 C 247 227.31216799999999 293.3385232 215 350.5 215 C 407.6614768 215 454 227.31216799999999 454 242.5 C 454 257.687832 407.6614768 270 350.5 270 C 293.3385232 270 247 257.687832 247 242.5 Z" opacity="0.2"/></g><g transform="translate(-86,-2) scale(1,1)"><path fill="#ffffff" stroke="none" d="M 240 235.5 C 240 220.31216799999999 286.3385232 208 343.5 208 C 400.6614768 208 447 220.31216799999999 447 235.5 C 447 250.68783200000001 400.6614768 263 343.5 263 C 286.3385232 263 240 250.68783200000001 240 235.5 Z"/></g><g transform="translate(-86,-2) scale(1,1)"><path fill="none" stroke="#000000" d="M 240 235.5 C 240 220.31216799999999 286.3385232 208 343.5 208 C 400.6614768 208 447 220.31216799999999 447 235.5 C 447 250.68783200000001 400.6614768 263 343.5 263 C 286.3385232 263 240 250.68783200000001 240 235.5 Z" stroke-miterlimit="10"/></g><g transform="translate(-86,-2) scale(1,1)"><g><path fill="none" stroke="none"/><text fill="#000000" stroke="none" font-family="Arial" font-size="13px" font-style="normal" font-weight="bold" text-decoration="none" x="278.128662109375" y="240.7099609375">Autorizar Pagamento</text></g></g><g transform="translate(-86,-2) scale(1,1)"><path fill="#C0C0C0" stroke="none" d="M 231 322.5 C 231 307.312168 286.5166848 295 355 295 C 423.4833152 295 479 307.312168 479 322.5 C 479 337.687832 423.4833152 350 355 350 C 286.5166848 350 231 337.687832 231 322.5 Z" opacity="0.2"/></g><g transform="translate(-86,-2) scale(1,1)"><path fill="#ffffff" stroke="none" d="M 224 315.5 C 224 300.312168 279.5166848 288 348 288 C 416.4833152 288 472 300.312168 472 315.5 C 472 330.687832 416.4833152 343 348 343 C 279.5166848 343 224 330.687832 224 315.5 Z"/></g><g transform="translate(-86,-2) scale(1,1)"><path fill="none" stroke="#000000" d="M 224 315.5 C 224 300.312168 279.5166848 288 348 288 C 416.4833152 288 472 300.312168 472 315.5 C 472 330.687832 416.4833152 343 348 343 C 279.5166848 343 224 330.687832 224 315.5 Z" stroke-miterlimit="10"/></g><g transform="translate(-86,-2) scale(1,1)"><g><path fill="none" stroke="none"/><text fill="#000000" stroke="none" font-family="Arial" font-size="13px" font-style="normal" font-weight="bold" text-decoration="none" x="264.925048828125" y="320.7099609375">Validar Fundos Suficientes</text></g></g><g transform="translate(-86,-2) scale(1,1)"><path fill="#C0C0C0" stroke="none" d="M 239 403 C 239 387.5360256 289.1441024 375 351 375 C 412.8558976 375 463 387.5360256 463 403 C 463 418.4639744 412.8558976 431 351 431 C 289.1441024 431 239 418.4639744 239 403 Z" opacity="0.2"/></g><g transform="translate(-86,-2) scale(1,1)"><path fill="#ffffff" stroke="none" d="M 232 396 C 232 380.5360256 282.1441024 368 344 368 C 405.8558976 368 456 380.5360256 456 396 C 456 411.4639744 405.8558976 424 344 424 C 282.1441024 424 232 411.4639744 232 396 Z"/></g><g transform="translate(-86,-2) scale(1,1)"><path fill="none" stroke="#000000" d="M 232 396 C 232 380.5360256 282.1441024 368 344 368 C 405.8558976 368 456 380.5360256 456 396 C 456 411.4639744 405.8558976 424 344 424 C 282.1441024 424 232 411.4639744 232 396 Z" stroke-miterlimit="10"/></g><g transform="translate(-86,-2) scale(1,1)"><g><path fill="none" stroke="none"/><text fill="#000000" stroke="none" font-family="Arial" font-size="13px" font-style="normal" font-weight="bold" text-decoration="none" x="285.119140625" y="401.2099609375">Aceitar Pagamento</text></g></g><g transform="translate(-86,-2) scale(1,1)"><path fill="#C0C0C0" stroke="none" d="M 199 470.5 C 199 457.5213072 276.9024448 447 373 447 C 469.0975552 447 547 457.5213072 547 470.5 C 547 483.4786928 469.0975552 494 373 494 C 276.9024448 494 199 483.4786928 199 470.5 Z" opacity="0.2"/></g><g transform="translate(-86,-2) scale(1,1)"><path fill="#ffffff" stroke="none" d="M 192 463.5 C 192 450.5213072 269.9024448 440 366 440 C 462.0975552 440 540 450.5213072 540 463.5 C 540 476.4786928 462.0975552 487 366 487 C 269.9024448 487 192 476.4786928 192 463.5 Z"/></g><g transform="translate(-86,-2) scale(1,1)"><path fill="none" stroke="#000000" d="M 192 463.5 C 192 450.5213072 269.9024448 440 366 440 C 462.0975552 440 540 450.5213072 540 463.5 C 540 476.4786928 462.0975552 487 366 487 C 269.9024448 487 192 476.4786928 192 463.5 Z" stroke-miterlimit="10"/></g><g transform="translate(-86,-2) scale(1,1)"><g><path fill="none" stroke="none"/><text fill="#000000" stroke="none" font-family="Arial" font-size="13px" font-style="normal" font-weight="bold" text-decoration="none" x="247.52734375" y="468.732177734375">Liquidação e Transferência de Fundos</text></g></g><g transform="translate(-86,-2) scale(1,1)"><path fill="#C0C0C0" stroke="none" d="M 223 542.5 C 223 529.5213072 290.60499519999996 519 374 519 C 457.39500480000004 519 525 529.5213072 525 542.5 C 525 555.4786928 457.39500480000004 566 374 566 C 290.60499519999996 566 223 555.4786928 223 542.5 Z" opacity="0.2"/></g><g transform="translate(-86,-2) scale(1,1)"><path fill="#ffffff" stroke="none" d="M 216 535.5 C 216 522.5213072 283.60499519999996 512 367 512 C 450.39500480000004 512 518 522.5213072 518 535.5 C 518 548.4786928 450.39500480000004 559 367 559 C 283.60499519999996 559 216 548.4786928 216 535.5 Z"/></g><g transform="translate(-86,-2) scale(1,1)"><path fill="none" stroke="#000000" d="M 216 535.5 C 216 522.5213072 283.60499519999996 512 367 512 C 450.39500480000004 512 518 522.5213072 518 535.5 C 518 548.4786928 450.39500480000004 559 367 559 C 283.60499519999996 559 216 548.4786928 216 535.5 Z" stroke-miterlimit="10"/></g><g transform="translate(-86,-2) scale(1,1)"><g><path fill="none" stroke="none"/><text fill="#000000" stroke="none" font-family="Arial" font-size="13px" font-style="normal" font-weight="bold" text-decoration="none" x="264.7646484375" y="540.7099609375">Consultar Transações Recebidas</text></g></g><g transform="translate(-86,-2) scale(1,1)"><path fill="#C0C0C0" stroke="none" d="M 223 611 C 223 595.5360256 288.1425616 583 368.5 583 C 448.8574384 583 514 595.5360256 514 611 C 514 626.4639744 448.8574384 639 368.5 639 C 288.1425616 639 223 626.4639744 223 611 Z" opacity="0.2"/></g><g transform="translate(-86,-2) scale(1,1)"><path fill="#ffffff" stroke="none" d="M 216 604 C 216 588.5360256 281.1425616 576 361.5 576 C 441.8574384 576 507 588.5360256 507 604 C 507 619.4639744 441.8574384 632 361.5 632 C 281.1425616 632 216 619.4639744 216 604 Z"/></g><g transform="translate(-86,-2) scale(1,1)"><path fill="none" stroke="#000000" d="M 216 604 C 216 588.5360256 281.1425616 576 361.5 576 C 441.8574384 576 507 588.5360256 507 604 C 507 619.4639744 441.8574384 632 361.5 632 C 281.1425616 632 216 619.4639744 216 604 Z" stroke-miterlimit="10"/></g><g transform="translate(-86,-2) scale(1,1)"><g><path fill="none" stroke="none"/><text fill="#000000" stroke="none" font-family="Arial" font-size="13px" font-style="normal" font-weight="bold" text-decoration="none" x="263.23828125" y="609.2099609375">Consultar Transações Enviadas</text></g></g><g transform="translate(-86,-2) scale(1,1)"><path fill="#C0C0C0" stroke="none" d="M 231 691 C 231 675.5360256 290.0984064 663 363 663 C 435.9015936 663 495 675.5360256 495 691 C 495 706.4639744 435.9015936 719 363 719 C 290.0984064 719 231 706.4639744 231 691 Z" opacity="0.2"/></g><g transform="translate(-86,-2) scale(1,1)"><path fill="#ffffff" stroke="none" d="M 224 684 C 224 668.5360256 283.0984064 656 356 656 C 428.9015936 656 488 668.5360256 488 684 C 488 699.4639744 428.9015936 712 356 712 C 283.0984064 712 224 699.4639744 224 684 Z"/></g><g transform="translate(-86,-2) scale(1,1)"><path fill="none" stroke="#000000" d="M 224 684 C 224 668.5360256 283.0984064 656 356 656 C 428.9015936 656 488 668.5360256 488 684 C 488 699.4639744 428.9015936 712 356 712 C 283.0984064 712 224 699.4639744 224 684 Z" stroke-miterlimit="10"/></g><g transform="translate(-86,-2) scale(1,1)"><g><path fill="none" stroke="none"/><text fill="#000000" stroke="none" font-family="Arial" font-size="13px" font-style="normal" font-weight="bold" text-decoration="none" x="294.576904296875" y="689.2099609375">Cancelar Transação</text></g></g><g transform="translate(-86,-2) scale(1,1)"><path fill="#C0C0C0" stroke="none" d="M 239 759 C 239 745.7451648 296.3075456 735 367 735 C 437.6924544 735 495 745.7451648 495 759 C 495 772.2548352 437.6924544 783 367 783 C 296.3075456 783 239 772.2548352 239 759 Z" opacity="0.2"/></g><g transform="translate(-86,-2) scale(1,1)"><path fill="#ffffff" stroke="none" d="M 232 752 C 232 738.7451648 289.3075456 728 360 728 C 430.6924544 728 488 738.7451648 488 752 C 488 765.2548352 430.6924544 776 360 776 C 289.3075456 776 232 765.2548352 232 752 Z"/></g><g transform="translate(-86,-2) scale(1,1)"><path fill="none" stroke="#000000" d="M 232 752 C 232 738.7451648 289.3075456 728 360 728 C 430.6924544 728 488 738.7451648 488 752 C 488 765.2548352 430.6924544 776 360 776 C 289.3075456 776 232 765.2548352 232 752 Z" stroke-miterlimit="10"/></g><g transform="translate(-86,-2) scale(1,1)"><g><path fill="none" stroke="none"/><text fill="#000000" stroke="none" font-family="Arial" font-size="13px" font-style="normal" font-weight="bold" text-decoration="none" x="292.435546875" y="757.2099609375">Gerenciar Chaves PIX</text></g></g><g transform="translate(-86,-2) scale(1,1)"><path fill="none" stroke="#000000" d="M 617 184 L 617 163 L 520 163 L 520 315 L 472 315" stroke-miterlimit="10"/></g><g transform="translate(-86,-2) scale(1,1)"><path fill="none" stroke="#000000" d="M 633 432 L 633 411 L 568 411 L 568 464 L 540 464" stroke-miterlimit="10"/></g><g transform="translate(-86,-2) scale(1,1)"><path fill="none" stroke="#000000" d="M 124 272 L 124 251 L 182 251 L 182 67 L 240 67" stroke-miterlimit="10"/></g><g transform="translate(-86,-2) scale(1,1)"><path fill="none" stroke="#000000" d="M 124 272 L 124 251 L 182 251 L 182 147 L 248 147" stroke-miterlimit="10"/></g><g transform="translate(-86,-2) scale(1,1)"><path fill="none" stroke="#000000" d="M 124 272 L 124 251 L 182 251 L 182 235 L 240 235" stroke-miterlimit="10"/></g><g transform="translate(-86,-2) scale(1,1)"><path fill="none" stroke="#000000" d="M 124 272 L 124 251 L 182 251 L 182 396 L 232 396" stroke-miterlimit="10"/></g><g transform="translate(-86,-2) scale(1,1)"><path fill="none" stroke="#000000" d="M 124 272 L 124 251 L 182 251 L 182 535 L 216 535" stroke-miterlimit="10"/></g><g transform="translate(-86,-2) scale(1,1)"><path fill="none" stroke="#000000" d="M 124 272 L 124 251 L 182 251 L 182 604 L 216 604" stroke-miterlimit="10"/></g><g transform="translate(-86,-2) scale(1,1)"><path fill="none" stroke="#000000" d="M 124 272 L 124 251 L 182 251 L 182 684 L 224 684" stroke-miterlimit="10"/></g><g transform="translate(-86,-2) scale(1,1)"><path fill="none" stroke="#000000" d="M 124 272 L 124 251 L 182 251 L 182 752 L 232 752" stroke-miterlimit="10"/></g><g transform="translate(-86,-2) scale(1,1)"><path fill="none" stroke="#000000" d="M 339 40 L 339 19 L 468 19 L 468 147 L 439 147" stroke-miterlimit="10" stroke-dasharray="3"/></g><g transform="translate(-86,-2) scale(1,1)"><path fill="none" stroke="#000000" d="M 449.16267485762415 142.790482243984 L 439 147 L 449.16267485762415 151.209517756016" stroke-miterlimit="10"/></g><g transform="translate(-86,-2) scale(1,1)"><g><path fill="none" stroke="none"/><text fill="#000000" stroke="none" font-family="Arial" font-size="13px" font-style="normal" font-weight="normal" text-decoration="none" x="470.5" y="22.7099609375">«include»</text></g></g><g transform="translate(-86,-2) scale(1,1)"><path fill="none" stroke="#000000" d="M 343 176 L 343 207" stroke-miterlimit="10" stroke-dasharray="3"/></g><g transform="translate(-86,-2) scale(1,1)"><path fill="none" stroke="#000000" d="M 338.790482243984 196.83732514237585 L 343 207 L 347.209517756016 196.83732514237585" stroke-miterlimit="10"/></g><g transform="translate(-86,-2) scale(1,1)"><g><path fill="none" stroke="none"/><text fill="#000000" stroke="none" font-family="Arial" font-size="13px" font-style="normal" font-weight="normal" text-decoration="none" x="344.5" y="194.7099609375">«include»</text></g></g><g transform="translate(-86,-2) scale(1,1)"><path fill="none" stroke="#000000" d="M 345 264 L 346 287" stroke-miterlimit="10" stroke-dasharray="3"/></g><g transform="translate(-86,-2) scale(1,1)"><path fill="none" stroke="#000000" d="M 341.3530169751094 277.02976686499363 L 346 287 L 349.7641062508149 276.6640673312673" stroke-miterlimit="10"/></g><g transform="translate(-86,-2) scale(1,1)"><g><path fill="none" stroke="none"/><text fill="#000000" stroke="none" font-family="Arial" font-size="13px" font-style="normal" font-weight="normal" text-decoration="none" x="346.5" y="276.7099609375">«include»</text></g></g><g transform="translate(-86,-2) scale(1,1)"><path fill="none" stroke="#000000" d="M 407 344 L 504 392 L 413 439" stroke-miterlimit="10" stroke-dasharray="3"/></g><g transform="translate(-86,-2) scale(1,1)"><path fill="none" stroke="#000000" d="M 420.0977455746957 430.5963098726281 L 413 439 L 423.96117030305925 438.076557750949" stroke-miterlimit="10"/></g><g transform="translate(-86,-2) scale(1,1)"><g><path fill="none" stroke="none"/><text fill="#000000" stroke="none" font-family="Arial" font-size="13px" font-style="normal" font-weight="normal" text-decoration="none" x="474.5" y="410.7099609375">«include»</text></g></g><g transform="translate(-86,-2) scale(1,1)"><path fill="none" stroke="#000000" d="M 440 146 L 592 144 L 592 688 L 489 686" stroke-miterlimit="10" stroke-dasharray="3"/></g><g transform="translate(-86,-2) scale(1,1)"><path fill="none" stroke="#000000" d="M 499.2424823440594 681.9885718962405 L 489 686 L 499.0790367360785 690.4060207072573" stroke-miterlimit="10"/></g><g transform="translate(-86,-2) scale(1,1)"><g><path fill="none" stroke="none"/><text fill="#000000" stroke="none" font-family="Arial" font-size="13px" font-style="normal" font-weight="normal" text-decoration="none" x="531.5" y="672.7099609375">«include»</text></g></g></g></svg>